<?xml version="1.0" encoding="utf-8"?><svg version="1.1" id="Layer_1" xmlns="http://www.w3.org/2000/svg" xmlns:xlink="http://www.w3.org/1999/xlink" x="0px" y="0px" viewBox="0 0 122.88 114.33" style="enable-background:new 0 0 122.88 114.33" xml:space="preserve"><g><path d="M61.44,0.92c14.9,0,28.45,5.79,38.51,15.25l15.76-15c1.7-1.62,4.39-1.55,6,0.15c1.62,1.7,1.55,4.39-0.15,6l-15.88,15.11 c7.52,9.56,12,21.62,12,34.73c0,13.9-5.05,26.63-13.41,36.44l14.07,13.4c1.7,1.62,1.77,4.3,0.15,6c-1.62,1.7-4.3,1.77-6,0.15 L98.3,99.64c-9.87,8.58-22.76,13.77-36.86,13.77c-14.1,0-26.99-5.19-36.86-13.76l-14.2,13.51c-1.7,1.62-4.39,1.55-6-0.15 c-1.62-1.7-1.55-4.39,0.15-6l14.07-13.4C10.24,83.79,5.19,71.07,5.19,57.16c0-13.11,4.48-25.17,12-34.73L1.32,7.32 c-1.7-1.62-1.77-4.3-0.15-6c1.62-1.7,4.3-1.77,6-0.15l15.76,15C32.99,6.71,46.54,0.92,61.44,0.92L61.44,0.92z M89.54,91.3 l-28.1-26.75l-28.1,26.75c7.64,6.3,17.43,10.08,28.1,10.08C72.11,101.38,81.9,97.6,89.54,91.3L89.54,91.3z M55.28,58.69 L25.96,30.77c-5.49,7.37-8.74,16.5-8.74,26.39c0,10.69,3.79,20.49,10.11,28.14L55.28,58.69L55.28,58.69z M31.66,24.48l29.78,28.35 l29.78-28.35c-7.86-7.16-18.31-11.53-29.78-11.53C49.97,12.95,39.52,17.31,31.66,24.48L31.66,24.48z M67.6,58.69L95.55,85.3 c6.31-7.64,10.11-17.45,10.11-28.14c0-9.89-3.25-19.02-8.73-26.39L67.6,58.69L67.6,58.69z"/></g></svg>